{"title":"Naughty America My Wife Is My PornStar July 21 2016.mp4","uid":15372122,"size":221333118,"categoryP":"porn","categoryS":"movies","magnet":"?xt=urn:btih:4bf7b32dbbcc1fdfc7b2b39b221e82b974c2ee74&amp;dn=Naughty+America+My+Wife+Is+My+PornStar+July+21+2016.mp4&amp;tr=udp%3A%2F%2Ftracker.leechers-paradise.org%3A6969&amp;tr=udp%3A%2F%2Fzer0day.ch%3A1337&amp;tr=udp%3A%2F%2Fopen.demonii.com%3A1337&amp;tr=udp%3A%2F%2Ftracker.coppersurfer.tk%3A6969&amp;tr=udp%3A%2F%2Fexodus.desync.com%3A6969","seeders":13,"leechers":1,"uploader":"PornyXXX","files":1,"time":1469147978,"description":"[Naughty America][Porn Movies][My Wife Is A PornStar] Katrina Jade [July 21 *2016*][10GBps WebSeeD].mp4 \r\n\r\nScreenShots:\r\n \nhttp://www.madimg.net/XxX/NaughtyAmerica072116/1.html  \nhttp://www.madimg.net/XxX/NaughtyAmerica072116/2.html  \nhttp://www.madimg.net/XxX/NaughtyAmerica072116/3.html  \nhttp://www.madimg.net/XxX/NaughtyAmerica072116/4.html  \nhttp://www.madimg.net/XxX/NaughtyAmerica072116/5.html \r\n\r\nINFO:\r\n\r\nFormat                                   : MPEG-4 \r\nFormat profile                           : Base Media \r\nCodec ID                                 : isom (isom/iso2/avc1/mp41) \r\nFile size                                : 211 MiB \r\nDuration                                 : 29mn 59s \r\nOverall bit rate mode                    : Variable \r\nOverall bit rate                         : 984 Kbps \r\nWriting application                      : Lavf54.29.104 \r\n\r\nVideo \r\nID                                       : 1 \r\nFormat                                   : AVC \r\nFormat/Info                              : Advanced Video Codec \r\nFormat profile                           :    \r\nFormat settings, CABAC                   : Yes \r\nFormat settings, ReFrames                : 4 frames \r\nCodec ID                                 : avc1 \r\nCodec ID/Info                            : Advanced Video Coding \r\nDuration                                 : 29mn 58s \r\nBit rate                                 : 900 Kbps \r\nWidth                                    : 640 pixels \r\nHeight                                   : 360 pixels \r\nDisplay aspect ratio                     : 16:9 \r\nFrame rate mode                          : Constant \r\nFrame rate                               : 24.000 fps \r\nColor space                              : YUV \r\nChroma subsampling                       : 4:2:0 \r\nBit depth                                : 8 bits \r\nScan type                                : Progressive \r\nBits/(Pixel*Frame)                       : 0.163 \r\nStream size                              : 193 MiB (91%) \r\nWriting library                          : x264 core 136 \r\nEncoding settings                        : cabac=1 / ref=4 / deblock=1:0:0 / analyse=0x1:0x111 / me=hex / subme=6 / psy=1 / psy_rd=1.00:0.00 / mixed_ref=1 / me_range=16 / chroma_me=1 / trellis=1 / 8x8dct=0 / cqm=0 / deadzone=21,11 / fast_pskip=1 / chroma_qp_offset=-2 / threads=48 / lookahead_threads=2 / sliced_threads=0 / nr=0 / decimate=1 / interlaced=0 / bluray_compat=0 / constrained_intra=0 / bframes=3 / b_pyramid=0 / b_adapt=1 / b_bias=0 / direct=1 / weightb=1 / open_gop=0 / weightp=2 / keyint=150 / keyint_min=25 / scenecut=40 / intra_refresh=0 / rc_lookahead=40 / rc=2pass / mbtree=1 / bitrate=900 / ratetol=1.0 / qcomp=0.50 / qpmin=8 / qpmax=51 / qpstep=4 / cplxblur=20.0 / qblur=0.5 / ip_ratio=1.41 / aq=1:1.00 \r\nLanguage                                 : English \r\n\r\nAudio \r\nID                                       : 2 \r\nFormat                                   : AAC \r\nFormat/Info                              : Advanced Audio Codec \r\nFormat profile                           : LC \r\nCodec ID                                 : 40 \r\nDuration                                 : 29mn 59s \r\nDuration_LastFrame                       : -13ms \r\nBit rate mode                            : Variable \r\nBit rate                                 : 78.1 Kbps \r\nMaximum bit rate                         : 96.0 Kbps \r\nChannel(s)                               : 2 channels \r\nChannel positions                        : Front: L R \r\nSampling rate                            : 44.1 KHz \r\nFrame rate                               : 43.066 fps (1024 spf) \r\nCompression mode                         : Lossy \r\nStream size                              : 16.7 MiB (8%) \r\nLanguage                                 : English \r\nDefault                                  : Yes \r\nAlternate group                          : 1","torrent":{"xt":"urn:btih:4bf7b32dbbcc1fdfc7b2b39b221e82b974c2ee74","amp;dn":"Naughty+America+My+Wife+Is+My+PornStar+July+21+2016.mp4","amp;tr":["udp%3A%2F%2Ftracker.leechers-paradise.org%3A6969","udp%3A%2F%2Fzer0day.ch%3A1337","udp%3A%2F%2Fopen.demonii.com%3A1337","udp%3A%2F%2Ftracker.coppersurfer.tk%3A6969","udp%3A%2F%2Fexodus.desync.com%3A6969"],"infoHash":"4bf7b32dbbcc1fdfc7b2b39b221e82b974c2ee74","infoHashBuffer":{"type":"Buffer","data":[75,247,179,45,187,204,31,223,199,178,179,155,34,30,130,185,116,194,238,116]},"announce":[],"urlList":[]}}